# xmcd
#
# Track frame offsets:
#	225
#	10384
#	21046
#	31502
#	43416
#	57377
#	70080
#	84687
#	98751
#	110854
#	128761
#	141626
#	153577
#	166963
#	184614
#	195252
#	205149
#	221915
#	235718
#	248640
#	260275
#	271906
#	289572
#	302979
#	320247
#
# Disc length: 4425 seconds
#
# Revision: 1
# Processed by: cddbd v1.5.2PL0 Copyright (c) Steve Scherf et al.
# Submitted via: audiograbber 1.83.01
#
DISCID=6e114619
DTITLE=Various Artist - porta 5  1974
DYEAR=1999
DGENRE=Folk
TTITLE0=San Francisco - Taxmeni
TTITLE1=Noc plna prani - Taxmeni
TTITLE2=Kruci,na me kaplo - Bobri
TTITLE3=Uvadly kvitek - Formani
TTITLE4=Kontinent - Formani
TTITLE5=Rum a spek - Vorari
TTITLE6=Slunce hladi zada - Fialovy expres
TTITLE7=Rano - Kominicci
TTITLE8=Jozue,ten porazil Jericho - Berani
TTITLE9=Kral Vaclav - Kantori
TTITLE10=Pisen pro tatu - Verumka
TTITLE11=Ukolebavka pro dceru - Letavice
TTITLE12=Carev - Marsyas
TTITLE13=Harold - Marsyas
TTITLE14=Namaluj,bracho,dum - Skupina Bohdana Mikolaska
TTITLE15=Silnice - Bakalari
TTITLE16=Jizni kriz - Kamaradi z Rokycan
TTITLE17=Ahoj, kamarade - Ariana
TTITLE18=Holka nitroglycerin - Krakatit
TTITLE19=Ohio - Toronto
TTITLE20=Anny - Toronto
TTITLE21=Dawson - Rosa
TTITLE22=Rosa na kolejich - Rosa
TTITLE23=Mississippi Blues - Pacifik
TTITLE24=No to se vi - Krakatit
EXTD=
EXTT0=
EXTT1=
EXTT2=
EXTT3=
EXTT4=
EXTT5=
EXTT6=
EXTT7=
EXTT8=
EXTT9=
EXTT10=
EXTT11=
EXTT12=
EXTT13=
EXTT14=
EXTT15=
EXTT16=
EXTT17=
EXTT18=
EXTT19=
EXTT20=
EXTT21=
EXTT22=
EXTT23=
EXTT24=
PLAYORDER=
